<svg width="411" height="256" viewBox="0 0 411 256" fill="none" xmlns="http://www.w3.org/2000/svg">
<g filter="url(#filter0_d)">
<path fill-rule="evenodd" clip-rule="evenodd" d="M34.406 78.4003C19.5725 58.9778 15 35.0934 15 11H17C17 34.8693 21.5344 58.2515 35.9954 77.1864C50.443 96.1036 74.9169 110.734 115.115 116.87C158.579 123.504 191.085 125.898 217.888 127.872C226.629 128.516 234.763 129.115 242.473 129.802C273.836 132.596 298.146 136.844 327.447 151.494C356.821 166.181 372.465 187.14 380.759 204.441C384.904 213.086 387.211 220.816 388.484 226.39C389.12 229.177 389.498 231.427 389.717 232.985C389.724 233.034 389.731 233.083 389.737 233.131L394.158 228.057C394.521 227.641 395.152 227.597 395.569 227.96C395.985 228.323 396.029 228.955 395.666 229.371L389.754 236.157C389.391 236.573 388.76 236.617 388.343 236.254L381.557 230.342C381.141 229.979 381.097 229.348 381.46 228.931C381.823 228.515 382.455 228.471 382.871 228.834L387.705 233.046C387.489 231.548 387.127 229.434 386.534 226.835C385.289 221.379 383.025 213.795 378.955 205.305C370.82 188.336 355.465 167.74 326.553 153.283C297.568 138.791 273.539 134.577 242.295 131.794C234.622 131.11 226.512 130.513 217.788 129.871C190.976 127.896 158.363 125.494 114.813 118.847C74.261 112.657 49.2529 97.8404 34.406 78.4003Z" fill="#0099AE"/>
</g>
<defs>
<filter id="filter0_d" x="0" y="0" width="410.912" height="255.5" filterUnits="userSpaceOnUse" color-interpolation-filters="sRGB">
<feFlood flood-opacity="0" result="BackgroundImageFix"/>
<feColorMatrix in="SourceAlpha" type="matrix" values="0 0 0 0 0 0 0 0 0 0 0 0 0 0 0 0 0 0 127 0"/>
<feOffset dy="4"/>
<feGaussianBlur stdDeviation="7.5"/>
<feColorMatrix type="matrix" values="0 0 0 0 0.854902 0 0 0 0 0.984314 0 0 0 0 1 0 0 0 1 0"/>
<feBlend mode="normal" in2="BackgroundImageFix" result="effect1_dropShadow"/>
<feBlend mode="normal" in="SourceGraphic" in2="effect1_dropShadow" result="shape"/>
</filter>
</defs>
</svg>
