<svg width="677" height="256" viewBox="0 0 677 256" fill="none" xmlns="http://www.w3.org/2000/svg">
<g filter="url(#filter0_d)">
<path fill-rule="evenodd" clip-rule="evenodd" d="M35.0524 78.4003C20.219 58.9778 15.6465 35.0934 15.6465 11H17.6465C17.6465 34.8693 22.1809 58.2515 36.6419 77.1864C51.0895 96.1036 75.5634 110.734 115.761 116.87C166.221 124.572 251.81 124.449 337.059 124.327C349.089 124.31 361.113 124.293 373.031 124.298C421.181 124.317 467.576 124.697 505.581 126.895C524.584 127.994 541.508 129.549 555.516 131.745C569.502 133.937 580.665 136.78 588.094 140.494C617.493 155.194 634.626 178.922 644.402 198.934C649.291 208.942 652.347 218.033 654.181 224.625C655.099 227.922 655.711 230.596 656.094 232.449C656.138 232.659 656.179 232.859 656.216 233.048L660.195 227.67C660.524 227.226 661.15 227.133 661.594 227.461C662.038 227.789 662.132 228.416 661.803 228.86L656.45 236.095C656.122 236.539 655.496 236.632 655.052 236.304L647.817 230.951C647.373 230.623 647.279 229.996 647.607 229.552C647.936 229.108 648.562 229.015 649.006 229.343L654.205 233.189C654.183 233.081 654.16 232.969 654.136 232.854C653.761 231.041 653.159 228.411 652.255 225.161C650.446 218.661 647.43 209.689 642.605 199.812C632.953 180.054 616.086 156.727 587.199 142.283C580.057 138.712 569.145 135.906 555.206 133.721C541.288 131.539 524.437 129.989 505.466 128.892C467.525 126.697 421.183 126.317 373.03 126.298C361.119 126.293 349.097 126.31 337.063 126.328C251.857 126.451 166.086 126.574 115.46 118.847C74.9075 112.657 49.8994 97.8404 35.0524 78.4003Z" fill="#0099AE"/>
</g>
<defs>
<filter id="filter0_d" x="0.646484" y="0" width="676.353" height="255.5" filterUnits="userSpaceOnUse" color-interpolation-filters="sRGB">
<feFlood flood-opacity="0" result="BackgroundImageFix"/>
<feColorMatrix in="SourceAlpha" type="matrix" values="0 0 0 0 0 0 0 0 0 0 0 0 0 0 0 0 0 0 127 0"/>
<feOffset dy="4"/>
<feGaussianBlur stdDeviation="7.5"/>
<feColorMatrix type="matrix" values="0 0 0 0 0.854167 0 0 0 0 0.982399 0 0 0 0 1 0 0 0 1 0"/>
<feBlend mode="normal" in2="BackgroundImageFix" result="effect1_dropShadow"/>
<feBlend mode="normal" in="SourceGraphic" in2="effect1_dropShadow" result="shape"/>
</filter>
</defs>
</svg>
