<svg width="30" height="30" viewBox="0 0 30 30" fill="none" xmlns="http://www.w3.org/2000/svg">
<g clip-path="url(#clip0)">
<path fill-rule="evenodd" clip-rule="evenodd" d="M10.5447 0.785616C10.2221 0.93151 9.97618 1.2273 9.97618 1.68174C9.97618 2.47035 9.9898 3.25585 10.0515 4.04047C9.81472 4.06194 7.92302 4.07894 7.68613 4.10241C7.6182 4.10895 7.55565 4.12396 7.49474 4.14016C6.98133 4.16003 6.48357 4.4911 6.48438 5.13996C6.50004 14.5935 6.57765 15.4668 6.66668 22.0834C6.70283 24.7703 6.61025 26.8246 6.72642 28.412C6.92023 29.0365 8.23861 28.7509 8.33334 26.6667C8.75001 17.5 8.61004 8.33335 8.61004 6.09721C10.6829 5.91484 18.7524 5.86456 20.8333 5.83335C20.9959 15.79 21.25 17.9167 21.25 27.5C19.347 27.7689 14.5868 27.712 11.9225 27.9957C9.25813 28.2795 6.3723 30.0222 9.07873 30.0015C11.7851 29.9808 19.4659 29.6769 22.1385 29.2728C22.7683 29.1774 22.9746 28.6896 22.8826 28.2179C22.9 28.1481 22.9124 28.0746 22.9166 27.9957C23.4507 17.5303 22.926 15.3315 22.7753 4.86349C22.7704 4.51208 22.6184 4.25596 22.4006 4.089C22.2324 3.85268 21.9596 3.68611 21.5741 3.68779C21.2664 3.68898 18.479 3.70199 18.1721 3.70678C18.1659 2.89135 18.1419 2.07721 18.033 1.26704C17.9576 0.706207 17.6077 0.229493 16.9729 0.229493C16.929 0.229493 16.8843 0.237236 16.8396 0.24418C16.7903 0.237635 16.7435 0.229493 16.6905 0.229493H11.4601C10.9965 0.229174 10.6938 0.469883 10.5447 0.785616ZM16.0518 3.76281C16.0493 3.27612 16.0368 2.78976 16.0074 2.30419H12.1034C12.1101 2.82863 12.123 3.35258 12.1593 3.8759C12.891 3.82761 15.3192 3.79322 16.0518 3.76281Z" fill="#0099AE"/>
<path d="M10.5686 18.9024C10.615 20.735 10.6266 22.5681 10.6701 24.4008C10.4539 25.0023 10.7744 25.8268 11.6286 25.8538C13.0117 25.8977 16.8683 25.8455 18.2439 25.6981C18.3056 25.6914 18.3618 25.6767 18.4183 25.6625C18.9533 25.6691 19.4829 25.3362 19.463 24.6606C19.4063 22.7412 19.3156 20.823 19.357 18.9024C19.364 18.5618 19.2319 18.3088 19.0307 18.1421C18.8953 17.7909 18.5814 17.5105 18.0849 17.5018C16.653 17.4773 12.7616 17.7148 11.3466 17.9018C10.8958 17.9616 10.5578 18.489 10.5686 18.9024ZM17.5003 24.225C16.8166 24.2765 13.1856 24.2206 12.5003 24.225C12.4734 22.8936 12.5263 20.9251 12.5003 19.5938C13.1811 19.5042 16.6265 19.33 17.3119 19.2959C17.3031 20.665 17.4551 22.8567 17.5003 24.225Z" fill="#0099AE"/>
</g>
<defs>
<clipPath id="clip0">
<rect width="30" height="30" fill="white"/>
</clipPath>
</defs>
</svg>
