<svg width="26" height="23" viewBox="0 0 26 23" fill="none" xmlns="http://www.w3.org/2000/svg">
<g clip-path="url(#clip0)">
<path d="M9.20029 22.4002C10.0003 23.1002 11.5003 23.3002 12.2003 22.4002C14.7003 19.7002 15.8003 17.7002 17.9003 14.6002C21.1003 11.1002 22.9003 6.90023 25.5003 2.90023C26.1003 1.90023 26.3003 0.900229 25.3003 0.100229C24.5003 -0.399771 23.7003 0.900229 22.9003 1.80023C18.1003 8.20023 15.7003 14.3002 10.8003 19.9002C8.70029 18.2002 3.80029 14.4002 1.80029 12.6002C1.50029 12.4002 0.900291 12.5002 0.600291 12.6002C0.000291169 12.9002 -0.199709 13.6002 0.200291 14.2002C0.700291 15.1002 0.600291 15.1002 2.20029 16.7002L9.20029 22.4002V22.4002Z" fill="#0099AE"/>
</g>
<defs>
<clipPath id="clip0">
<rect width="26" height="23" fill="white"/>
</clipPath>
</defs>
</svg>
