<svg width="60" height="60" viewBox="0 0 60 60" fill="none" xmlns="http://www.w3.org/2000/svg">
<path d="M33.5991 39.7005C34.8991 39.7005 36.2991 39.5005 37.5991 39.0005C37.8991 39.0005 38.1991 38.8005 38.4991 38.6005L39.3991 38.2005L40.2991 37.6005L41.0991 37.0005L41.6991 36.5005L41.8991 36.3005L41.9991 36.2005L42.1991 36.0005L43.1991 35.0005L44.9991 33.0005L48.6991 29.2005L52.3991 25.3005L53.2991 24.3005L53.7991 23.9005L54.2991 23.3005C54.9991 22.5005 55.4991 21.6005 55.9991 20.7005C57.0679 19.0573 57.7179 17.1773 57.8922 15.2249C58.0665 13.2724 57.7599 11.307 56.9991 9.50048L56.6991 8.80048L56.2991 8.10048C56.066 7.6474 55.7985 7.2128 55.4991 6.80048L55.1991 6.40048L54.9991 6.20048L54.5991 5.70048L54.3991 5.50048V5.40048L53.9991 5.00048L53.4991 4.50048C51.9063 3.22262 50.0386 2.33175 48.0432 1.89795C46.0477 1.46415 43.9788 1.49925 41.9991 2.00048L41.1991 2.20048L40.4991 2.40048L39.0991 3.00048L37.7991 3.80048L36.3991 4.80048L35.9991 5.20048L35.7991 5.40048L35.4991 5.60048L34.4991 6.60048L32.9991 8.10048L29.4991 11.4005C29.0527 11.9336 28.8052 12.6052 28.7991 13.3005C28.7991 14.2005 29.7991 14.0005 30.7991 13.6005C33.7268 12.3932 36.431 10.703 38.7991 8.60048C38.7991 8.50048 38.7991 8.60048 38.7991 8.60048V8.50048L38.9991 8.40048L39.3991 8.10048L39.8991 7.70048C40.2991 7.50048 40.8991 6.70048 41.2991 6.60048C44.2991 5.20048 48.5991 5.40048 51.0991 7.50048C53.3991 9.50048 54.0991 13.0005 53.3991 16.0005C53.1991 17.0005 52.1991 18.6005 51.5991 19.4005L51.1991 20.0005L50.8991 20.3005L50.5991 20.6005L49.2991 22.1005L46.2991 24.8005L41.6991 29.2005L39.4991 31.4005L38.8991 32.0005L38.5991 32.3005L38.3991 32.4005L37.8991 33.0005L37.4991 33.2005C36.2289 34.0823 34.7422 34.6009 33.1991 34.7005C32.3991 34.7005 31.5991 34.7005 30.7991 34.5005C29.772 34.2658 28.7917 33.8602 27.8991 33.3005C27.6991 33.3005 27.5991 33.1005 27.3991 33.0005L26.2991 32.5005C25.5991 32.2005 24.9991 32.1005 24.4991 32.5005C24.0991 32.9005 23.8991 33.5005 24.1991 34.5005C24.2991 34.9005 24.4991 35.4005 24.8991 35.9005C25.1991 36.4005 25.6991 36.9005 26.2991 37.2005C28.2991 38.8005 30.9991 39.7005 33.6991 39.6005L33.5991 39.7005Z" fill="#0099AE"/>
<path d="M6.59958 43.6008C6.79958 42.6008 7.89958 41.2009 8.39958 40.4009L8.89958 39.7008L9.09958 39.5008L9.39958 39.1008L10.7996 37.7008L13.7996 34.9009L18.2996 30.6008L20.5996 28.3008L21.0996 27.8008L21.3996 27.5008L21.5996 27.3008L22.1996 26.8008L22.5996 26.5008C23.8802 25.6545 25.3661 25.1707 26.8996 25.1008C27.6996 25.1008 28.4996 25.1008 29.2996 25.3008C30.2919 25.5459 31.2377 25.9513 32.0996 26.5008L32.6996 26.8008L33.6996 27.3008C34.3996 27.6008 34.9996 27.7008 35.4996 27.3008C35.9996 26.9008 36.0996 26.2008 35.8996 25.3008C35.7996 24.9008 35.4996 24.3008 35.0996 23.9008C34.7996 23.4008 34.2996 22.9008 33.6996 22.5008C32.0733 21.3653 30.1984 20.6364 28.2322 20.3754C26.2659 20.1144 24.2658 20.3289 22.3996 21.0008C21.9996 21.0008 21.6996 21.2008 21.3996 21.4008L20.4996 21.8008L19.5996 22.4008L18.7996 23.0008L18.1996 23.5008L17.9996 23.7008L17.8996 23.9008L17.6996 24.1008L16.6996 25.0008L14.8996 27.0008L11.1996 30.8008L7.49958 34.7008L6.59958 35.7008L6.09958 36.1008L5.59958 36.7008C4.89958 37.5008 4.39958 38.4008 3.89958 39.3008C2.83082 40.944 2.18086 42.824 2.00653 44.7765C1.83221 46.7289 2.13883 48.6943 2.89958 50.5008L3.19958 51.2008L3.59958 51.9009L4.39958 53.2009L4.69958 53.6008L4.89958 53.8008L5.29958 54.3008L5.49958 54.5009L5.59958 54.6008L5.89958 54.9009L6.39958 55.4009C7.99507 56.7112 9.87569 57.6291 11.8903 58.0806C13.905 58.5322 15.9974 58.5048 17.9996 58.0009L18.7996 57.8008L19.4996 57.6008L20.8996 57.0009L22.1996 56.2009L23.5996 55.2009L23.9996 54.8008L24.1996 54.6008L24.4996 54.4009L25.4996 53.4009L27.0996 51.7008L30.5996 48.4009C31.0461 47.8678 31.2935 47.1962 31.2996 46.5008C31.2996 45.6008 30.2996 45.8008 29.2996 46.2008C26.3719 47.4082 23.6677 49.0983 21.2996 51.2008C21.2996 51.3008 21.2996 51.2008 21.2996 51.2008V51.3008L21.0996 51.4009L20.6996 51.7008L20.1996 52.1008L18.9996 52.7009C15.9996 54.1009 11.9996 54.7008 8.99958 52.1008C6.19958 49.7008 5.99958 46.6008 6.69958 43.6008H6.59958Z" fill="#0099AE"/>
</svg>
