<svg width="225" height="205" viewBox="0 0 225 205" fill="none" xmlns="http://www.w3.org/2000/svg">
<circle cx="2.0592" cy="1.67639" r="1.67639" fill="#FFCDEB"/>
<circle cx="20.4967" cy="1.67639" r="1.67639" fill="#FFCDEB"/>
<circle cx="94.2096" cy="1.67639" r="1.67639" fill="#FFCDEB"/>
<circle cx="167.928" cy="1.67639" r="1.67639" fill="#FFCDEB"/>
<circle cx="38.9205" cy="1.67639" r="1.67639" fill="#FFCDEB"/>
<circle cx="112.631" cy="1.67639" r="1.67639" fill="#FFCDEB"/>
<circle cx="186.348" cy="1.67639" r="1.67639" fill="#FFCDEB"/>
<circle cx="57.3483" cy="1.67639" r="1.67639" fill="#FFCDEB"/>
<circle cx="131.059" cy="1.67639" r="1.67639" fill="#FFCDEB"/>
<circle cx="204.782" cy="1.67639" r="1.67639" fill="#FFCDEB"/>
<circle cx="75.778" cy="1.67639" r="1.67639" fill="#FFCDEB"/>
<circle cx="149.489" cy="1.67639" r="1.67639" fill="#FFCDEB"/>
<circle cx="223.21" cy="1.67639" r="1.67639" fill="#FFCDEB"/>
<circle cx="2.0592" cy="37.7174" r="1.67639" fill="#FFCDEB"/>
<circle cx="20.4967" cy="37.7174" r="1.67639" fill="#FFCDEB"/>
<circle cx="94.2096" cy="37.7174" r="1.67639" fill="#FFCDEB"/>
<circle cx="167.928" cy="37.7174" r="1.67639" fill="#FFCDEB"/>
<circle cx="38.9205" cy="37.7174" r="1.67639" fill="#FFCDEB"/>
<circle cx="112.631" cy="37.7174" r="1.67639" fill="#FFCDEB"/>
<circle cx="186.348" cy="37.7174" r="1.67639" fill="#FFCDEB"/>
<circle cx="57.3483" cy="37.7174" r="1.67639" fill="#FFCDEB"/>
<circle cx="131.059" cy="37.7174" r="1.67639" fill="#FFCDEB"/>
<circle cx="204.782" cy="37.7174" r="1.67639" fill="#FFCDEB"/>
<circle cx="75.778" cy="37.7174" r="1.67639" fill="#FFCDEB"/>
<circle cx="149.489" cy="37.7174" r="1.67639" fill="#FFCDEB"/>
<circle cx="223.21" cy="37.7174" r="1.67639" fill="#FFCDEB"/>
<circle cx="2.0592" cy="74.5992" r="1.67639" fill="#FFCDEB"/>
<circle cx="20.4967" cy="74.5992" r="1.67639" fill="#FFCDEB"/>
<circle cx="94.2096" cy="74.5992" r="1.67639" fill="#FFCDEB"/>
<circle cx="167.928" cy="74.5992" r="1.67639" fill="#FFCDEB"/>
<circle cx="38.9205" cy="74.5992" r="1.67639" fill="#FFCDEB"/>
<circle cx="112.631" cy="74.5992" r="1.67639" fill="#FFCDEB"/>
<circle cx="186.348" cy="74.5992" r="1.67639" fill="#FFCDEB"/>
<circle cx="57.3483" cy="74.5992" r="1.67639" fill="#FFCDEB"/>
<circle cx="131.059" cy="74.5992" r="1.67639" fill="#FFCDEB"/>
<circle cx="204.782" cy="74.5992" r="1.67639" fill="#FFCDEB"/>
<circle cx="75.778" cy="74.5992" r="1.67639" fill="#FFCDEB"/>
<circle cx="149.489" cy="74.5992" r="1.67639" fill="#FFCDEB"/>
<circle cx="223.21" cy="74.5992" r="1.67639" fill="#FFCDEB"/>
<circle cx="2.0592" cy="111.48" r="1.67639" fill="#FFCDEB"/>
<circle cx="2.0592" cy="147.943" r="1.67639" fill="#FFCDEB"/>
<circle cx="2.0592" cy="184.801" r="1.67639" fill="#FFCDEB"/>
<circle cx="20.4967" cy="111.48" r="1.67639" fill="#FFCDEB"/>
<circle cx="20.4967" cy="147.943" r="1.67639" fill="#FFCDEB"/>
<circle cx="20.4967" cy="184.801" r="1.67639" fill="#FFCDEB"/>
<circle cx="94.2096" cy="111.48" r="1.67639" fill="#FFCDEB"/>
<circle cx="94.2096" cy="147.943" r="1.67639" fill="#FFCDEB"/>
<circle cx="94.2096" cy="184.801" r="1.67639" fill="#FFCDEB"/>
<circle cx="167.928" cy="111.48" r="1.67639" fill="#FFCDEB"/>
<circle cx="167.928" cy="147.943" r="1.67639" fill="#FFCDEB"/>
<circle cx="167.928" cy="184.801" r="1.67639" fill="#FFCDEB"/>
<circle cx="38.9205" cy="111.48" r="1.67639" fill="#FFCDEB"/>
<circle cx="38.9205" cy="147.943" r="1.67639" fill="#FFCDEB"/>
<circle cx="38.9205" cy="184.801" r="1.67639" fill="#FFCDEB"/>
<circle cx="112.631" cy="111.48" r="1.67639" fill="#FFCDEB"/>
<circle cx="112.631" cy="147.943" r="1.67639" fill="#FFCDEB"/>
<circle cx="112.631" cy="184.801" r="1.67639" fill="#FFCDEB"/>
<circle cx="186.348" cy="111.48" r="1.67639" fill="#FFCDEB"/>
<circle cx="186.348" cy="147.943" r="1.67639" fill="#FFCDEB"/>
<circle cx="186.348" cy="184.801" r="1.67639" fill="#FFCDEB"/>
<circle cx="57.3483" cy="111.48" r="1.67639" fill="#FFCDEB"/>
<circle cx="57.3483" cy="147.943" r="1.67639" fill="#FFCDEB"/>
<circle cx="57.3483" cy="184.801" r="1.67639" fill="#FFCDEB"/>
<circle cx="131.059" cy="111.48" r="1.67639" fill="#FFCDEB"/>
<circle cx="131.059" cy="147.943" r="1.67639" fill="#FFCDEB"/>
<circle cx="131.059" cy="184.801" r="1.67639" fill="#FFCDEB"/>
<circle cx="204.782" cy="111.48" r="1.67639" fill="#FFCDEB"/>
<circle cx="204.782" cy="147.943" r="1.67639" fill="#FFCDEB"/>
<circle cx="204.782" cy="184.801" r="1.67639" fill="#FFCDEB"/>
<circle cx="75.778" cy="111.48" r="1.67639" fill="#FFCDEB"/>
<circle cx="75.778" cy="147.943" r="1.67639" fill="#FFCDEB"/>
<circle cx="75.778" cy="184.801" r="1.67639" fill="#FFCDEB"/>
<circle cx="149.489" cy="111.48" r="1.67639" fill="#FFCDEB"/>
<circle cx="149.489" cy="147.943" r="1.67639" fill="#FFCDEB"/>
<circle cx="149.489" cy="184.801" r="1.67639" fill="#FFCDEB"/>
<circle cx="223.21" cy="111.48" r="1.67639" fill="#FFCDEB"/>
<circle cx="223.21" cy="147.943" r="1.67639" fill="#FFCDEB"/>
<circle cx="223.21" cy="184.801" r="1.67639" fill="#FFCDEB"/>
<circle cx="2.0592" cy="20.1178" r="1.67639" fill="#FFCDEB"/>
<circle cx="20.4967" cy="20.1178" r="1.67639" fill="#FFCDEB"/>
<circle cx="94.2096" cy="20.1178" r="1.67639" fill="#FFCDEB"/>
<circle cx="167.928" cy="20.1178" r="1.67639" fill="#FFCDEB"/>
<circle cx="38.9205" cy="20.1178" r="1.67639" fill="#FFCDEB"/>
<circle cx="112.631" cy="20.1178" r="1.67639" fill="#FFCDEB"/>
<circle cx="186.348" cy="20.1178" r="1.67639" fill="#FFCDEB"/>
<circle cx="57.3483" cy="20.1178" r="1.67639" fill="#FFCDEB"/>
<circle cx="131.059" cy="20.1178" r="1.67639" fill="#FFCDEB"/>
<circle cx="204.782" cy="20.1178" r="1.67639" fill="#FFCDEB"/>
<circle cx="75.778" cy="20.1178" r="1.67639" fill="#FFCDEB"/>
<circle cx="149.489" cy="20.1178" r="1.67639" fill="#FFCDEB"/>
<circle cx="223.21" cy="20.1178" r="1.67639" fill="#FFCDEB"/>
<circle cx="2.0592" cy="56.1588" r="1.67639" fill="#FFCDEB"/>
<circle cx="20.4967" cy="56.1588" r="1.67639" fill="#FFCDEB"/>
<circle cx="94.2096" cy="56.1588" r="1.67639" fill="#FFCDEB"/>
<circle cx="167.928" cy="56.1588" r="1.67639" fill="#FFCDEB"/>
<circle cx="38.9205" cy="56.1588" r="1.67639" fill="#FFCDEB"/>
<circle cx="112.631" cy="56.1588" r="1.67639" fill="#FFCDEB"/>
<circle cx="186.348" cy="56.1588" r="1.67639" fill="#FFCDEB"/>
<circle cx="57.3483" cy="56.1588" r="1.67639" fill="#FFCDEB"/>
<circle cx="131.059" cy="56.1588" r="1.67639" fill="#FFCDEB"/>
<circle cx="204.782" cy="56.1588" r="1.67639" fill="#FFCDEB"/>
<circle cx="75.778" cy="56.1588" r="1.67639" fill="#FFCDEB"/>
<circle cx="149.489" cy="56.1588" r="1.67639" fill="#FFCDEB"/>
<circle cx="223.21" cy="56.1588" r="1.67639" fill="#FFCDEB"/>
<circle cx="2.0592" cy="93.0397" r="1.67639" fill="#FFCDEB"/>
<circle cx="20.4967" cy="93.0397" r="1.67639" fill="#FFCDEB"/>
<circle cx="94.2096" cy="93.0397" r="1.67639" fill="#FFCDEB"/>
<circle cx="167.928" cy="93.0397" r="1.67639" fill="#FFCDEB"/>
<circle cx="38.9205" cy="93.0397" r="1.67639" fill="#FFCDEB"/>
<circle cx="112.631" cy="93.0397" r="1.67639" fill="#FFCDEB"/>
<circle cx="186.348" cy="93.0397" r="1.67639" fill="#FFCDEB"/>
<circle cx="57.3483" cy="93.0397" r="1.67639" fill="#FFCDEB"/>
<circle cx="131.059" cy="93.0397" r="1.67639" fill="#FFCDEB"/>
<circle cx="204.782" cy="93.0397" r="1.67639" fill="#FFCDEB"/>
<circle cx="75.778" cy="93.0397" r="1.67639" fill="#FFCDEB"/>
<circle cx="149.489" cy="93.0397" r="1.67639" fill="#FFCDEB"/>
<circle cx="223.21" cy="93.0397" r="1.67639" fill="#FFCDEB"/>
<circle cx="2.0592" cy="129.919" r="1.67639" fill="#FFCDEB"/>
<circle cx="2.0592" cy="166.384" r="1.67639" fill="#FFCDEB"/>
<circle cx="2.0592" cy="203.243" r="1.67639" fill="#FFCDEB"/>
<circle cx="20.4967" cy="129.919" r="1.67639" fill="#FFCDEB"/>
<circle cx="20.4967" cy="166.384" r="1.67639" fill="#FFCDEB"/>
<circle cx="20.4967" cy="203.243" r="1.67639" fill="#FFCDEB"/>
<circle cx="94.2096" cy="129.919" r="1.67639" fill="#FFCDEB"/>
<circle cx="94.2096" cy="166.384" r="1.67639" fill="#FFCDEB"/>
<circle cx="94.2096" cy="203.243" r="1.67639" fill="#FFCDEB"/>
<circle cx="167.928" cy="129.919" r="1.67639" fill="#FFCDEB"/>
<circle cx="167.928" cy="166.384" r="1.67639" fill="#FFCDEB"/>
<circle cx="167.928" cy="203.243" r="1.67639" fill="#FFCDEB"/>
<circle cx="38.9205" cy="129.919" r="1.67639" fill="#FFCDEB"/>
<circle cx="38.9205" cy="166.384" r="1.67639" fill="#FFCDEB"/>
<circle cx="38.9205" cy="203.243" r="1.67639" fill="#FFCDEB"/>
<circle cx="112.631" cy="129.919" r="1.67639" fill="#FFCDEB"/>
<circle cx="112.631" cy="166.384" r="1.67639" fill="#FFCDEB"/>
<circle cx="112.631" cy="203.243" r="1.67639" fill="#FFCDEB"/>
<circle cx="186.348" cy="129.919" r="1.67639" fill="#FFCDEB"/>
<circle cx="186.348" cy="166.384" r="1.67639" fill="#FFCDEB"/>
<circle cx="186.348" cy="203.243" r="1.67639" fill="#FFCDEB"/>
<circle cx="57.3483" cy="129.919" r="1.67639" fill="#FFCDEB"/>
<circle cx="57.3483" cy="166.384" r="1.67639" fill="#FFCDEB"/>
<circle cx="57.3483" cy="203.243" r="1.67639" fill="#FFCDEB"/>
<circle cx="131.059" cy="129.919" r="1.67639" fill="#FFCDEB"/>
<circle cx="131.059" cy="166.384" r="1.67639" fill="#FFCDEB"/>
<circle cx="131.059" cy="203.243" r="1.67639" fill="#FFCDEB"/>
<circle cx="204.782" cy="129.919" r="1.67639" fill="#FFCDEB"/>
<circle cx="204.782" cy="166.384" r="1.67639" fill="#FFCDEB"/>
<circle cx="204.782" cy="203.243" r="1.67639" fill="#FFCDEB"/>
<circle cx="75.778" cy="129.919" r="1.67639" fill="#FFCDEB"/>
<circle cx="75.778" cy="166.384" r="1.67639" fill="#FFCDEB"/>
<circle cx="75.778" cy="203.243" r="1.67639" fill="#FFCDEB"/>
<circle cx="149.489" cy="129.919" r="1.67639" fill="#FFCDEB"/>
<circle cx="149.489" cy="166.384" r="1.67639" fill="#FFCDEB"/>
<circle cx="149.489" cy="203.243" r="1.67639" fill="#FFCDEB"/>
<circle cx="223.21" cy="129.919" r="1.67639" fill="#FFCDEB"/>
<circle cx="223.21" cy="166.384" r="1.67639" fill="#FFCDEB"/>
<circle cx="223.21" cy="203.243" r="1.67639" fill="#FFCDEB"/>
</svg>
