<svg width="23" height="23" viewBox="0 0 23 23" fill="none" xmlns="http://www.w3.org/2000/svg">
<g clip-path="url(#clip0)">
<path d="M7.20054 10.1999C7.92482 11.4167 9.35753 12.5893 10.8605 12.2799C11.2105 12.1799 11.4005 12.0399 11.3605 11.8299C11.2259 10.9327 9.17046 11.7441 8.27054 9.04403C7.25871 6.37428 7.96253 1.49989 11.1105 1.49989C14.4704 1.49989 15.6006 5 14.1805 8.99989C13.4704 11 11.9704 10.5 11.4605 11.0699C11.2605 11.2899 11.5605 11.4899 11.9905 11.5799C13.8452 12.0568 15.4514 10.3669 15.9205 8.72989C17.0682 5.01687 16.0319 -0.184583 11.3105 -0.00010887C9.76564 0.0175795 8.07929 0.784965 7.22054 2.10989C6.21801 3.63686 6.06486 5.76766 6.34054 7.53989C6.46054 8.43989 6.71054 9.34989 7.20054 10.1999ZM20.5505 15.1699C19.5588 13.6795 17.2565 13.4756 15.8505 12.6299C15.5972 12.4984 15.3159 12.4299 15.0305 12.4299C14.8819 12.467 14.8172 12.5483 14.8605 12.6999C14.9005 12.8499 15.0405 13.0399 15.2305 13.2299C16.1536 14.1611 17.2796 14.8662 18.5205 15.2899L18.4805 15.2799C19.0305 15.5399 19.3505 15.9799 19.5105 16.5999C19.7537 17.479 19.6987 18.5688 19.5205 19.4599C14.5509 21.7058 8.35397 21.9951 3.47054 19.3499C3.37614 18.3587 3.20454 17.0443 3.77054 16.1599C4.34561 15.2613 5.7855 15.1683 6.77054 14.6499C7.85054 14.0699 8.59054 13.3099 8.27054 13.0099C7.97054 12.7399 7.17054 12.9599 6.12054 13.4099C5.42115 13.7118 4.69452 13.9462 3.95054 14.1099C3.51174 14.2562 3.11037 14.4845 2.77517 14.8054C2.4497 15.117 2.19861 15.4979 2.04054 15.9199C1.59072 17.04 1.63006 18.4651 1.80054 19.6499C1.83054 19.8299 1.86054 19.9999 1.95054 20.2299C2.13404 20.6886 2.8919 20.9376 3.30054 21.1299C7.69315 23.0531 13.9262 23.322 18.2905 21.8099C18.9975 21.5801 19.676 21.2705 20.3305 20.9199C20.6025 20.7567 20.8906 20.6295 21.0005 20.2999C21.5553 18.7834 21.4169 16.5699 20.5505 15.1699Z" fill="#0099AE"/>
</g>
<defs>
<clipPath id="clip0">
<rect width="23" height="23" fill="white"/>
</clipPath>
</defs>
</svg>
