<svg width="23" height="23" viewBox="0 0 23 23" fill="none" xmlns="http://www.w3.org/2000/svg">
<g clip-path="url(#clip0)">
<path d="M22.195 1.52727C21.7859 0.990025 21.2424 0.570155 20.6192 0.31C20.2876 0.187809 19.9696 0.0977798 19.6192 0.05L15.4092 0.02C12.1492 0.02 8.89922 0.02 5.64922 0C5.06922 0 4.16922 0.16 3.87922 0.27C3.30922 0.5 4.04922 0.69 5.14922 0.84C8.77922 1.32 13.1792 1.54 17.6492 1.59C18.2797 1.59618 18.9353 1.54601 19.5592 1.65C20.0655 1.7508 20.5202 2.02639 20.8438 2.42857C21.1673 2.83076 21.3392 3.33391 21.3292 3.85L21.1792 18.01V19.01C21.1792 19.4 21.1692 19.61 21.1092 19.81C21.022 20.1503 20.8467 20.4617 20.601 20.7127C20.3552 20.9637 20.0476 21.1456 19.7092 21.24C19.0937 21.34 17.7623 21.3316 16.9092 21.34L5.61922 21.3C4.39927 21.3 2.86265 21.6185 2.06573 20.4126C1.86655 20.1112 1.75363 19.761 1.73922 19.4L1.58922 3.92C1.58922 3.59794 1.6372 3.28605 1.73922 2.98C1.93778 2.44881 2.30711 1.99859 2.78922 1.7C3.31922 1.36 3.75922 1.26 3.67922 1.03C3.63922 0.95 3.49922 0.85 3.25922 0.81C3.00922 0.75 2.65922 0.76 2.25922 0.89C1.83922 1.03 1.35922 1.29 0.959215 1.75C0.507486 2.26702 0.234022 2.91563 0.179215 3.6L0.159215 4.04C0.0404189 9.02941 -0.0652818 14.0288 0.00921421 19.02V19.37C0.0192142 19.51 0.00921421 19.65 0.0492142 19.79C0.125467 20.3507 0.330324 20.8861 0.64778 21.3545C1.09344 22.012 1.85227 22.6471 2.65922 22.82C3.18653 22.933 3.658 22.97 4.19922 22.97L4.86922 22.96L18.2992 22.83L19.5792 22.85C20.3308 22.7729 21.0397 22.4638 21.6077 21.9657C22.1758 21.4676 22.5747 20.8051 22.7492 20.07C22.8792 19.45 22.8492 19.12 22.8592 18.7L22.8892 17.5C22.9633 12.9801 22.9992 8.4605 22.9992 3.94C22.8956 3.05924 22.7545 2.26211 22.195 1.52727Z" fill="#0099AE"/>
<path d="M8.74937 15.7399C9.00937 16.0399 9.45937 16.0799 9.75937 15.8199C10.818 14.8788 11.8848 13.9586 12.8094 12.8799C14.1713 11.7161 15.4499 10.4746 16.5794 9.07985C16.8494 8.72985 16.9594 8.32985 16.6294 8.03985C16.3294 7.78985 15.9194 7.80985 15.5694 8.08985C13.3648 9.87452 11.433 12.0094 9.32937 13.8999C8.59937 13.1799 7.85937 12.4799 7.17937 11.7299C7.10937 11.6499 6.87937 11.6499 6.75937 11.6899C6.51937 11.7799 6.47937 12.0099 6.51937 12.2599C6.63937 13.0599 7.05937 13.7799 7.58937 14.3999L8.74937 15.7399Z" fill="#0099AE"/>
</g>
<defs>
<clipPath id="clip0">
<rect width="23" height="23" fill="white"/>
</clipPath>
</defs>
</svg>
