<svg width="23" height="23" viewBox="0 0 23 23" fill="none" xmlns="http://www.w3.org/2000/svg">
<path fill-rule="evenodd" clip-rule="evenodd" d="M14.2994 0.419629C15.9194 0.699629 17.5094 1.30963 18.7994 2.41963C21.0376 4.33493 22.45 7.1147 22.6773 10.0518C22.7906 11.5164 22.6141 12.9889 22.1581 14.3852C21.702 15.7815 20.9753 17.0743 20.0194 18.1896C16.2894 22.5196 9.58934 23.8796 4.71934 20.5896C-0.050662 17.3596 -1.10066 11.5896 1.09934 6.41963C3.13934 1.62963 7.79934 -1.08037 12.7994 0.419629C13.6494 0.699629 13.9994 1.88963 12.9994 1.52963C11.7077 1.07816 10.1982 1.33338 8.84934 1.22963H8.83934C5.42934 2.01963 2.81934 5.29963 1.94934 8.94963C1.38934 11.3096 1.37934 14.0296 2.63934 16.1996C4.12026 18.6306 6.66234 20.3105 9.47934 20.7196C14.9494 21.4896 20.8794 17.3496 21.0094 11.5796C21.0794 8.51963 19.7794 5.01963 17.3094 3.07963C16.3794 2.33963 14.1594 1.52963 14.1594 1.52963C14.1594 1.52963 12.6594 0.129629 14.2894 0.419629H14.2994Z" fill="#0099AE"/>
<path d="M8.11936 9.85031C9.26936 9.85031 9.26936 8.07031 8.11936 8.07031C6.97936 8.07031 6.97936 9.85031 8.11936 9.85031ZM14.2494 9.94031C15.3994 9.94031 15.3994 8.16031 14.2494 8.16031C13.1094 8.16031 13.1094 9.94031 14.2494 9.94031ZM14.6994 12.9503C12.5694 15.0703 9.81936 14.8503 7.68936 12.8603C6.84936 12.0803 5.58936 13.3303 6.42936 14.1203C9.26936 16.7703 13.1294 17.0203 15.9494 14.2103C16.7594 13.4003 15.5094 12.1403 14.6894 12.9503H14.6994Z" fill="#0099AE"/>
</svg>
