<svg width="23" height="23" viewBox="0 0 23 23" fill="none" xmlns="http://www.w3.org/2000/svg">
<path d="M5.04063 18.7599C3.79212 17.7002 2.84382 16.3312 2.29063 14.7899C1.59063 13.0599 1.51063 11.4499 1.05063 11.5899C0.420634 11.8099 0.590634 13.3899 0.640634 13.8899C0.920634 15.3899 1.44063 16.6899 2.26063 18.0099C2.88063 18.8299 3.46063 19.5499 4.21063 20.2399C5.37063 21.2399 6.65063 21.9399 8.09063 22.4599C16.0006 24.4999 22.8306 19.3199 22.8306 12.3299C23.0006 10.8899 22.8806 9.42986 22.4806 8.03986C21.6407 5.21418 19.7225 2.83255 17.1406 1.40986C11.6406 -1.29014 5.12063 -0.0901318 1.65063 5.66986C0.915032 6.95827 0.401208 8.36114 0.130634 9.81986C0.0306346 10.3999 0.180634 11.1199 0.280634 11.3799C0.480634 11.8599 0.700634 11.2599 0.910634 10.3499C1.76063 7.32986 3.95063 3.90986 7.01063 2.68986C15.7606 -1.68014 24.2506 8.39986 20.2106 16.2299C19.494 17.5232 18.4947 18.638 17.287 19.4911C16.0794 20.3443 14.6948 20.9137 13.2363 21.1569C11.7779 21.4001 10.2834 21.3109 8.86432 20.8958C7.44521 20.4808 6.13814 19.7506 5.04063 18.7599Z" fill="#0099AE"/>
<path d="M10.8779 13.7198C11.1679 13.9698 11.6079 13.9498 11.8579 13.6498C12.2279 13.2298 12.7179 12.9098 13.0779 12.4798C14.4479 11.8798 16.6779 9.59984 17.7479 8.67984C17.7979 8.63984 17.7479 8.45984 17.6979 8.34984C17.2979 7.68984 16.1679 8.09984 15.6979 8.46984C14.1279 9.70984 12.9979 10.6998 11.3879 11.8498C9.76794 10.1298 9.43794 9.84984 9.08794 9.61984C8.85794 9.47984 8.54794 9.47984 8.25794 9.78984C7.99794 10.0898 7.92794 10.4198 8.07794 10.6398C8.87794 11.7498 9.83794 12.8098 10.8779 13.7198Z" fill="#0099AE"/>
</svg>
