<svg width="27" height="23" viewBox="0 0 27 23" fill="none" xmlns="http://www.w3.org/2000/svg">
<g clip-path="url(#clip0)">
<path fill-rule="evenodd" clip-rule="evenodd" d="M10.4789 8.77009C10.7866 7.76035 10.8752 6.69658 10.739 5.64983C10.6028 4.60309 10.2448 3.59745 9.68893 2.70009C8.67893 1.05009 7.14893 0.510093 5.49893 0.180093C3.83893 -0.139907 1.89893 0.0400938 0.658932 0.160093L0.298932 0.200093C0.298932 0.200093 0.108932 -0.0599062 0.0189329 0.200093C-0.0710671 0.460093 0.158932 1.00009 0.158932 1.00009C0.418932 1.36009 0.838932 1.99009 1.21893 2.71009C1.59893 3.45009 1.91893 4.23009 2.00893 4.88009C2.29893 6.88009 2.89893 8.68009 4.20893 9.80009C5.34893 10.7801 7.20893 11.1601 7.93893 11.1601C8.66893 11.1601 9.63893 10.1901 8.77893 10.1901C7.93893 10.1901 5.96893 9.37009 4.99893 8.54009C4.40557 8.07293 3.91023 7.49327 3.54129 6.83433C3.17235 6.17539 2.93707 5.45012 2.84893 4.70009C2.57322 3.40122 1.99028 2.18733 1.14893 1.16009C1.14893 1.16009 3.41893 1.24009 4.66893 1.48009C5.99893 1.75009 8.33893 2.18009 9.16893 3.53009C9.99678 4.90745 10.302 6.53647 10.0289 8.12009C8.92893 6.62009 7.85893 5.82009 7.18893 5.32009C7.03893 5.21009 6.90893 5.12009 6.80893 5.02009C6.07893 4.44009 6.48893 5.83009 7.08893 6.32009C10.0015 8.65019 11.6846 13.174 12.1789 16.7501H12.1889C11.4889 18.9101 10.5989 21.2801 10.3689 22.6201C10.2189 23.4801 12.0889 22.6201 12.0889 22.6201C12.3189 21.3101 12.5989 19.1601 13.3089 17.0401C13.812 15.402 14.5245 13.8357 15.4289 12.3801L15.8389 12.2101C16.5889 11.9001 17.6289 11.4701 18.3989 11.4701C19.4489 11.4701 20.6589 11.8001 20.6589 11.8001C20.6589 11.8001 20.8089 11.6501 20.6589 11.4701C20.3789 11.1501 19.6089 10.8301 18.3989 10.8301C17.7989 10.8301 17.1189 10.9301 16.5189 11.0601C18.1784 9.26973 20.0409 7.67898 22.0689 6.32009C22.0689 6.32009 22.6389 5.35009 22.3489 5.35009C22.1489 5.35009 19.7689 6.83009 17.5889 8.65009C17.8989 7.85009 18.2489 6.96009 18.3889 6.64009C18.5089 6.39009 18.2889 5.86009 18.1289 5.94009C17.6689 6.21009 16.6289 8.87009 16.2689 9.81009C15.9189 10.1501 15.5889 10.4901 15.2889 10.8301C14.3887 11.8175 13.619 12.9165 12.9989 14.1001C12.5289 11.6501 13.2589 7.75009 15.3289 6.50009C18.4655 4.62704 22.0109 3.5459 25.6589 3.35009C24.5416 5.17179 23.753 7.17556 23.3289 9.27009C22.9289 11.6201 22.8289 14.7401 20.5689 15.6001C18.6389 16.3301 16.0189 16.3501 14.9189 16.2401L15.1489 17.2701C16.3089 17.3801 19.1689 17.4101 21.3089 16.6001C22.8289 16.0201 23.6189 14.5901 24.1089 13.0601C24.4489 11.9601 24.6689 10.7201 24.8589 9.59009C25.1989 7.62009 25.6589 4.49009 26.8789 3.09009C27.0589 2.89009 27.0089 2.81009 26.9189 2.69009C26.8602 2.6194 26.8161 2.53785 26.7889 2.45009C26.6889 2.13009 23.3389 2.58009 21.0889 2.97009C18.8389 3.37009 16.4289 4.02009 14.6489 5.10009C12.7089 6.28009 12.0189 8.48009 11.9089 10.6001V11.2401C11.5582 10.3904 10.991 9.54819 10.4789 8.78009V8.77009Z" fill="#0099AE"/>
</g>
<defs>
<clipPath id="clip0">
<rect width="27" height="23" fill="white"/>
</clipPath>
</defs>
</svg>
