<svg width="23" height="23" viewBox="0 0 23 23" fill="none" xmlns="http://www.w3.org/2000/svg">
<g clip-path="url(#clip0)">
<path d="M15.5894 11.2297C13.6402 12.854 13.4194 14.9074 13.4194 17.3397L13.3894 21.3697C13.3894 21.8497 13.5494 22.5997 13.6594 22.8397C13.8794 23.3097 14.0694 22.6997 14.2094 21.7897C14.4494 20.2897 14.6194 18.6197 14.7394 16.8697C14.8267 15.4172 14.764 14.0435 15.9794 12.9597C19.0159 10.4487 19.995 6.06535 17.7444 2.64373C17.1056 1.67253 16.2562 0.85769 15.2594 0.259714C15.0561 0.147925 14.9007 0.036194 14.6594 0.00971428C14.0791 -0.0244209 13.5671 0.404782 13.5194 0.989714C13.5194 2.28877 13.9993 5.50001 12.8294 6.27971C12.0499 6.72513 10.2549 6.72346 9.62801 6.0002C8.94358 5.21047 9.35044 2.39967 9.35934 1.15971C9.23574 0.665319 8.94484 0.2394 8.40514 0.169761C6.98019 -0.0141034 5.49312 2.30508 5.00934 3.11971C3.79082 5.34326 3.68451 8.03084 4.74934 10.3397C5.34673 11.6198 6.41166 12.3885 7.18934 13.4997C8.15188 15.0261 7.71932 17.7183 7.73934 19.4797C7.79934 21.4797 8.00934 23.1297 8.41934 22.9797C8.80934 22.8397 9.08934 21.4297 9.11934 19.3797C9.16014 17.7709 9.37423 16.0621 9.18934 14.4597C9.02291 12.9992 8.20927 12.1296 7.30934 11.1397C4.95416 8.54689 5.2082 4.56173 7.79934 2.22971C7.79934 3.81089 7.42295 5.94625 8.66934 7.17971C9.81551 8.30212 12.921 8.36912 14.1339 7.31625C15.4861 6.14244 15.0995 3.9266 15.1794 2.31971C17.8793 4.56022 18.0442 8.77028 15.5894 11.2297Z" fill="#0099AE"/>
</g>
<defs>
<clipPath id="clip0">
<rect width="23" height="23" fill="white"/>
</clipPath>
</defs>
</svg>
