<svg width="60" height="60" viewBox="0 0 60 60" fill="none" xmlns="http://www.w3.org/2000/svg">
<path d="M26.8 2.99961L28.8 6.39961C30.1 6.39961 31.1 6.19961 32.5 6.29961L34.5 2.89961C35.1 2.09961 35.9 1.49961 36.8 1.19961C37.8 0.899609 38.8 0.899609 39.6 1.19961L42.2 2.29961L44.7 3.39961C45.5464 3.77959 46.2472 4.42314 46.6978 5.23417C47.1484 6.0452 47.3245 6.98022 47.2 7.89961V8.09961L46.2 12.0996C47.2 12.7996 48 13.6996 48.8 14.5996L52.6 13.7996C53.5503 13.628 54.5308 13.7813 55.3834 14.2348C56.236 14.6883 56.9111 15.4157 57.3 16.2996L58.3 18.7996L59.3 21.4996C59.7 22.3996 59.6 23.3996 59.3 24.1996C59 25.0996 58.4 25.8996 57.6 26.3996L54.2 28.3996V32.1996L57.2 34.1996L58 34.8996L58.7 35.8996C59.1302 36.73 59.271 37.6802 59.1 38.5996V38.7996L58.9 39.1996V39.2996L58.8 39.5996L58.5 40.1996L58 41.2996L57 43.8996L56.8 44.1996C56.5248 44.8714 56.0762 45.458 55.5 45.8996C54 46.9996 52.6 46.3996 51 45.9996L47.8 44.9996C46.4 45.4996 46.5 45.6996 45.5 45.9996C44.5 46.2996 42.5 46.7996 43 45.4996C43.6 44.1996 45.8 41.7996 47.8 41.7996L52.9 42.8996C53.2 42.8996 53.3 42.8996 53.4 42.6996L54.4 40.2996L55.4 37.9996C55.4 37.7996 55.4 37.6996 55.2 37.5996L50.8 34.7996C50.2 34.3996 49.9 33.7996 50 33.0996C50.3 31.1996 50.3 29.2996 50 27.4996C50 26.7996 50.3 26.0996 50.8 25.6996L55.3 22.9996V22.6996L54.4 20.3996L53.4 17.9996L48.2 19.0996C47.8345 19.182 47.4533 19.16 47.0997 19.0362C46.7461 18.9125 46.4343 18.6919 46.2 18.3996C45.1283 16.8938 43.8489 15.5471 42.4 14.3996C42.1077 14.1653 41.8871 13.8535 41.7634 13.4999C41.6396 13.1463 41.6177 12.7651 41.7 12.3996V12.1996L43 7.29961L40.5 6.19961L38.2 5.19961C37.1987 6.66542 36.1987 8.13209 35.2 9.59961C34.8 10.1996 34.2 10.5996 33.5 10.3996C31.7 10.0996 29.8 9.99961 27.9 10.1996C27 10.2996 26.4 10.4996 25.9 9.79961L24.6 7.49961L23.9 6.39961L23.6 5.79961L23.4 5.49961V5.39961L23.3 5.29961H23L22.7 5.39961L22.1 5.69961L20.8 6.09961L18.4 7.09961H18.2L19 11.4996L19.1 12.2996V12.3996C19.3 12.9996 19 13.5996 18.5 13.9996L16.6 15.2996L14.3 17.8996C14 18.3996 13.3 18.5996 12.8 18.4996L7.6 17.2996C7.4 17.2996 7.3 17.2996 7.2 17.4996L6.2 19.8996L5.2 22.2996L5.3 22.5996L9.8 25.3996C10.4 25.7996 10.7 26.4996 10.6 27.0996C10.3 29.0996 10.3 30.8996 10.6 32.6996C10.6225 33.0524 10.551 33.4049 10.3929 33.7211C10.2348 34.0373 9.99571 34.3059 9.7 34.4996L5.3 37.2996L5.2 37.4996L6.2 39.7996L7.2 42.1996L12.3 41.1996C12.6655 41.1173 13.0467 41.1392 13.4003 41.263C13.7539 41.3867 14.0657 41.6073 14.3 41.8996C15.3919 43.3922 16.7074 44.7077 18.2 45.7996C18.8 46.2996 19.1 47.0996 18.9 47.7996V48.0996L17.7 52.8996L20.1 53.9996L22.4 54.9996H22.5L23.2 53.8996C24 52.7996 24 52.3996 24.7 51.2996C25.2 50.6996 25.5 50.4996 26.5 50.4996C27.5 50.4996 30.3 49.6996 32.5 49.4996L32.7 49.3996C33.0951 49.3481 33.4965 49.4158 33.8528 49.594C34.2091 49.7722 34.5041 50.0527 34.7 50.3996L36.1 52.6996L36.7 53.8996L37.1 54.3996L37.2 54.6996L37.3 54.8996H37.7L38 54.7996L38.6 54.5996L39.9 54.0996L42.4 53.0996C42.4 53.1996 42.4 53.0996 42.4 53.0996L42.1 49.4996C42.1 47.9996 44.5 49.1996 45.1 49.9996C46.1 51.6996 47.1 53.0996 45.9 55.1996C45.4796 55.9305 44.8537 56.5217 44.1 56.8996H43.9L41.4 57.8996L40.1 58.4996L39.5 58.6996L39.2 58.7996L38.8 58.9996C37.9347 59.2908 36.9981 59.2922 36.132 59.0035C35.2659 58.7148 34.5175 58.1518 34 57.3996L31.8 53.7996C30.5 53.7996 29.6 54.0996 28.2 53.9996L26 57.2996C25.469 58.1304 24.65 58.7358 23.7 58.9996C22.8 59.2996 21.8 59.2996 20.9 58.9996L18.4 57.8996L15.9 56.8996C15.0351 56.515 14.3212 55.8556 13.8692 55.0239C13.4172 54.1922 13.2523 53.2346 13.4 52.2996V51.9996L14.4 48.0996C13.4 47.2996 12.6 46.3996 11.8 45.4996L8 46.2996C7.07269 46.4866 6.10958 46.3626 5.25989 45.9468C4.41019 45.531 3.72132 44.8466 3.3 43.9996L2.3 41.4996L1.3 38.8996C0.9 37.8996 0.9 36.8996 1.3 36.0996C1.55994 35.2019 2.12603 34.4235 2.9 33.8996L6.4 31.8996V27.9996L3.4 25.9996L2.6 25.3996L1.8 24.2996C1.5 23.4996 1.3 22.5996 1.5 21.6996C1.50268 21.5996 1.50268 21.4996 1.5 21.3996L1.6 20.9996L1.7 20.8996L1.8 20.5996L2.1 20.0996L2.6 18.8996L3.6 16.2996L3.8 15.9996C4.12822 15.2218 4.68856 14.5642 5.40448 14.1168C6.1204 13.6693 6.957 13.4538 7.8 13.4996H8.3V13.5996H8.5L8.9 13.6996L9.6 13.8996L10.9 14.1996L12.3 14.4996C13.1 13.4996 14.1 12.4996 15.1 11.7996L14.8 10.4996L14.5 9.29961L14.4 8.59961V8.29961L14.3 8.09961V7.79961C14.143 6.90154 14.2825 5.97677 14.6974 5.16497C15.1124 4.35317 15.7802 3.69842 16.6 3.29961H16.7L19.3 2.29961L20.5 1.69961L21.1 1.49961L21.5 1.39961L21.9 1.19961C22.7653 0.908373 23.7019 0.907002 24.568 1.19571C25.4341 1.48441 26.1825 2.04746 26.7 2.79961V2.89961L26.8 2.99961Z" fill="#0099AE"/>
<path d="M37.5004 32.7004L37.3004 33.1004C37.3004 33.4004 37.1004 33.7004 36.9004 34.1004C35.9495 35.8493 34.4336 37.2242 32.6004 38.0004L31.6004 38.5004C31.2851 38.5961 30.9828 38.7305 30.7004 38.9004C30.2004 39.2004 29.8004 39.6004 29.9004 40.2004C29.9004 40.7004 30.3004 41.1004 31.0004 41.4004L32.3004 41.6004C32.7004 41.6004 33.3004 41.6004 33.8004 41.4004C35.3134 40.9614 36.7221 40.2214 37.9421 39.2248C39.1622 38.2281 40.1684 36.9954 40.9004 35.6004L41.6004 34.1004L41.8004 33.3004L42.0004 32.5004V31.8004L42.1004 31.5004V30.0004C42.1004 29.1004 42.1004 28.3004 41.8004 27.5004C41.1754 25.0551 39.7953 22.869 37.8563 21.2533C35.9174 19.6375 33.5183 18.6742 31.0004 18.5004C29.5004 18.2004 28.0004 18.2004 26.5004 18.5004C24.9339 18.8385 23.4563 19.5031 22.164 20.4508C20.8717 21.3985 19.7937 22.608 19.0004 24.0004L18.4004 25.0004L18.0004 26.2004L17.6004 27.3004L17.4004 28.6004V31.0004C17.5756 33.6308 18.5651 36.1415 20.2315 38.1842C21.898 40.2269 24.1588 41.7005 26.7004 42.4004L27.2004 42.6004L27.9004 42.7004C28.1874 42.7378 28.4791 42.7124 28.7553 42.6261C29.0315 42.5398 29.2858 42.3945 29.5004 42.2004C30.0004 41.6004 29.5004 41.2004 28.5004 40.7004C27.2004 39.9004 25.9004 38.9004 24.8004 37.8004C23.8004 36.8004 22.8004 35.5004 22.2004 34.1004C21.8562 33.2734 21.6534 32.3945 21.6004 31.5004V30.0004C21.6004 29.5004 21.6004 28.9004 21.8004 28.6004V28.3004L21.9004 28.0004L22.1004 27.4004L22.4004 26.8004L22.7004 26.2004C23.6083 24.7207 24.9292 23.5388 26.5004 22.8004L27.7004 22.4004L28.9004 22.1004H31.5004L33.9004 23.0004C35.3791 23.9232 36.5253 25.2932 37.1726 26.9115C37.8199 28.5299 37.9348 30.3124 37.5004 32.0004L37.4004 32.6004L37.5004 32.7004Z" fill="#0099AE"/>
</svg>
