<svg width="30" height="30" viewBox="0 0 30 30" fill="none" xmlns="http://www.w3.org/2000/svg">
<g clip-path="url(#clip0)">
<path d="M12.5639 17.7259C12.436 17.9468 12.4825 18.2782 12.8662 18.6386C13.2208 18.9641 13.5928 19.092 13.8079 18.9583C14.1974 18.7084 14.5985 18.4642 14.9124 18.1329C15.1914 17.8422 15.4472 17.5225 15.6972 17.2086C16.2727 18.0515 17.1272 18.6328 17.7608 19.4176C17.7957 19.4641 18.005 19.3885 18.1271 19.3071C18.3654 19.1502 18.4875 18.9235 18.534 18.7142C18.6967 18.0282 18.563 17.5225 18.2898 17.1504C17.9759 16.7261 17.6794 16.2901 17.3539 15.8774C18.1212 15.3077 18.6793 14.5171 19.4176 13.9183C19.4641 13.8835 19.3885 13.6742 19.3071 13.5521C19.1502 13.3138 18.9235 13.1917 18.7142 13.1452C18.0282 12.9824 17.5225 13.1161 17.1504 13.3893C16.7261 13.7032 16.2901 13.9997 15.8774 14.3253L15.8715 14.3194C15.3251 13.6393 14.7322 13.0057 13.9532 12.5639C13.7323 12.436 13.401 12.4825 13.0405 12.8662C12.715 13.2208 12.5871 13.5928 12.7208 13.8079C12.9708 14.1974 13.2149 14.5985 13.5463 14.9124C13.8369 15.1914 14.1509 15.4414 14.4706 15.6972C14.4183 15.732 14.3659 15.7727 14.3136 15.8134C13.6393 16.354 13.0057 16.947 12.5639 17.7259Z" fill="#0099AE"/>
<path d="M28.2423 3.95145C26.7117 1.8895 24.3905 0.710192 21.8104 0.843171C18.606 1.00811 16.2695 3.56488 14.8118 6.33852C13.0764 3.75284 10.4955 1.48497 7.30362 1.67375C4.39999 1.84532 1.99199 3.63178 0.776156 6.34635C-0.804651 9.8757 0.196628 14.1391 2.27378 17.2156C2.91485 18.1655 3.62799 19.0397 4.39033 19.8619L5.76278 21.2407C8.70804 24.0141 12.1644 26.2475 15.1967 28.9176C15.4883 29.1741 15.8213 29.2131 16.1127 29.1211C16.4041 29.0291 16.3709 28.5749 15.8333 27.9163C12.8747 24.2921 8.78075 21.6893 5.83333 18.333C3.56565 15.7511 1.37264 12.0979 2.27378 8.45073C2.85663 6.09153 4.54915 3.89971 7.08333 3.74967C10.3493 3.55657 12.5156 5.96447 14.0031 8.69803C14.251 9.15373 14.6753 9.24887 15.047 9.13004C15.3776 9.13928 15.7052 8.97777 15.8756 8.56639C17.0718 5.68428 19.065 2.9464 22.332 2.77826C25.1468 2.63324 26.6667 4.58301 27.7125 7.03098C28.986 10.5579 26.987 14.6822 25 17.4997C22.5275 21.0042 18.75 24.9997 17.5 26.2497C16.25 27.4997 16.264 28.2356 17.5 27.9163C18.736 27.597 25.6179 21.0146 28.4189 15.7417C30.0228 12.7237 30.6151 8.81395 29.2054 5.61299L28.2423 3.95145Z" fill="#0099AE"/>
</g>
<defs>
<clipPath id="clip0">
<rect width="30" height="30" fill="white"/>
</clipPath>
</defs>
</svg>
