<svg width="60" height="60" viewBox="0 0 60 60" fill="none" xmlns="http://www.w3.org/2000/svg">
<g clip-path="url(#clip0)">
<path d="M57.3008 1.69974V1.59974C57.2008 0.599735 56.3008 -0.100265 55.3008 -0.000264832C54.7008 -0.000264832 53.7008 1.79974 53.3008 2.19974C52.6008 3.09974 52.0008 3.99974 51.1008 4.79974C49.3279 6.34299 47.2968 7.56163 45.1008 8.39973C40.5008 10.2997 35.4008 10.9997 30.6008 11.6997C27.9781 12.0734 25.3751 12.574 22.8008 13.1997C11.6008 15.9997 8.50082 20.4997 9.50082 32.9997C9.80082 36.4997 12.0008 37.2997 11.8008 35.1997C11.2008 29.0997 11.0008 23.6997 16.5008 19.9997C20.7008 17.0997 26.1008 16.8997 31.0008 15.9997C39.2008 14.5997 48.4008 11.9997 54.4008 5.99974C55.1008 15.3997 54.9008 23.1997 50.5008 31.4997C43.6008 44.3997 28.1008 45.6997 16.5008 39.9997C20.5008 35.2997 22.0008 32.2997 27.0008 28.4997C28.7008 27.2997 28.6008 23.8997 27.0008 25.0997C15.3998 33.1486 6.64762 44.6665 2.00082 57.9997C1.50082 59.9997 4.40082 59.4997 5.40082 56.9997C7.40082 51.9997 10.4008 48.0997 13.9008 43.4997C26.1008 49.7997 41.6008 49.9997 50.8008 38.2997C58.6008 28.3997 58.4008 13.7997 57.2008 1.89974V1.69974H57.3008Z" fill="#0099AE"/>
</g>
<defs>
<clipPath id="clip0">
<rect width="60" height="60" fill="white"/>
</clipPath>
</defs>
</svg>
