<svg width="30" height="30" viewBox="0 0 30 30" fill="none" xmlns="http://www.w3.org/2000/svg">
<path d="M6.03705 13.6682L5.91025 13.6625C5.86414 13.6625 5.84109 13.6567 5.7604 13.6567C5.62784 13.6567 5.49528 13.6682 5.36272 13.6913C4.83248 13.7835 4.34835 14.0832 4.01983 14.5212C3.85269 14.7403 3.73166 14.9881 3.65673 15.2532L3.62791 15.3569L3.60486 15.478L3.58757 15.599L3.58181 15.6682L3.57604 15.7316V15.7489V15.8123V15.8411L3.57028 15.9679L3.52994 16.9707C3.47806 18.3136 3.43772 19.6565 3.4089 21.0051C3.38009 22.3538 3.35703 23.7024 3.3455 25.0511L3.33974 26.0655L3.33398 26.5727V26.6361L3.33974 26.7398C3.3455 26.8147 3.3455 26.8954 3.35703 26.9703C3.37432 27.1259 3.4089 27.2758 3.46077 27.4256C3.65097 28.0251 4.07747 28.5322 4.625 28.8377C4.76332 28.9126 4.90741 28.976 5.05726 29.0279C5.20711 29.074 5.35119 29.1143 5.55291 29.1374C5.67395 29.1547 5.67395 29.1489 5.72582 29.1489L5.84685 29.1547H5.91025H6.16384C11.5815 29.1605 17.0107 29.0971 22.4111 29.1662C22.8895 29.172 23.6445 28.9703 23.8865 28.8319C24.3591 28.5495 23.7425 28.3132 22.8318 28.1346C19.8175 27.5409 16.152 27.2816 12.4288 27.2124C10.2041 27.1663 7.97933 27.1202 5.74887 27.0741C5.76616 27.0683 5.70276 27.0568 5.66818 27.0395C5.62784 27.0222 5.59326 26.9934 5.56444 26.9646C5.50104 26.9069 5.4607 26.8262 5.44917 26.7456C5.44341 26.7283 5.44341 26.7052 5.44341 26.6879C5.44341 26.6764 5.44341 26.6649 5.44341 26.6591V26.5554L5.44917 26.1346L5.46646 25.2932L5.51833 21.9273C5.52986 20.8034 5.54139 19.6795 5.55291 18.5557L5.56444 16.867V16.0255V15.8353V15.818V15.7661C5.56444 15.7546 5.56444 15.72 5.5702 15.7258C5.5702 15.7316 5.5702 15.7316 5.5702 15.7373C5.56444 15.7661 5.5702 15.7373 5.57597 15.7258C5.58173 15.7143 5.58173 15.7027 5.59326 15.6912C5.61631 15.6451 5.65666 15.599 5.70276 15.576C5.72582 15.5644 5.74887 15.5587 5.77769 15.5471C5.78922 15.5414 5.80651 15.5414 5.81803 15.5414C5.81227 15.5414 5.8699 15.5414 5.89872 15.5414H6.00246L7.69116 15.5298C8.81504 15.5126 9.94468 15.4953 11.0743 15.478C12.1925 15.501 13.3048 15.5183 14.4229 15.5414L19.7311 15.599L22.3823 15.6105H23.7079H23.875H23.9557H23.996H24.0018H24.0594H24.0998C24.1171 15.6105 24.0998 15.6105 24.0998 15.6105C24.0825 15.6105 24.0594 15.6048 24.0767 15.6105C24.1056 15.6163 24.1344 15.6278 24.1574 15.6509C24.1862 15.6739 24.2035 15.697 24.2151 15.7258C24.2208 15.7373 24.2208 15.7546 24.2266 15.7719C24.2266 15.7777 24.2266 15.7834 24.2266 15.7834C24.2266 15.7892 24.2266 15.7834 24.2266 15.818V15.9852L24.2381 17.3108L24.2727 19.9562C24.3015 21.7198 24.3419 23.4834 24.4053 25.2471C24.411 25.4949 24.4225 25.7427 24.4398 25.979C24.4456 26.1001 24.4571 26.2153 24.4629 26.3306C24.4687 26.3882 24.4744 26.4459 24.4744 26.4977L24.4802 26.5784L24.4859 26.6188V26.6418C24.4859 26.6533 24.4859 26.5554 24.4859 26.5957V26.6015V26.613L24.4917 26.6937V26.734C24.4917 26.734 24.5032 26.734 24.5032 26.7629C24.509 26.8032 24.5032 26.8435 24.5032 26.8839C24.4917 26.9646 24.4687 27.0453 24.4341 27.1202C24.3015 27.4372 23.973 27.6043 24.0306 27.8694C24.0594 27.9847 24.1805 28.1057 24.411 28.1518C24.6416 28.198 24.9931 28.1576 25.3447 27.904C25.5176 27.7772 25.6905 27.5986 25.8173 27.3623C25.9499 27.1432 26.0306 26.7859 26.0421 26.5611C26.0882 26.1346 26.1228 25.662 26.1343 25.1491C26.1804 23.3048 26.2265 21.4489 26.2726 19.5931L26.3187 16.8093L26.3245 16.112V15.7489C26.3187 15.5529 26.2957 15.3569 26.2438 15.1667C26.0363 14.3944 25.4139 13.772 24.6473 13.5587C24.5666 13.5414 24.5032 13.5184 24.3995 13.5069C24.313 13.4953 24.1862 13.4781 24.1632 13.4781L24.094 13.4723H23.9788H23.8404H23.2814L22.1633 13.4781H21.8751C22.146 12.7749 22.3477 12.0026 22.4918 11.1842C22.5667 10.7577 22.6243 10.3139 22.6647 9.87013C22.6877 9.64535 22.705 9.42058 22.7223 9.1958L22.7338 9.02866V8.98832V8.97679V8.92492V8.90187V8.81541V8.47537C22.6935 6.01437 21.391 3.59371 19.2988 2.17589C18.2556 1.47275 17.0338 1.01167 15.7658 0.879116C15.6102 0.867589 15.4488 0.861825 15.2932 0.850299L15.0569 0.838772L14.9359 0.833008H14.9186H14.8494H14.8264L14.7745 0.838772L14.3768 0.896406L14.1693 0.907933L13.9215 0.942514C13.5872 0.994385 13.2472 1.05202 12.9532 1.14423C12.8034 1.19034 12.6478 1.23069 12.4979 1.28256L12.0599 1.46122C11.7602 1.54768 11.4778 1.69176 11.1896 1.8128C10.9072 1.94536 10.6363 2.1125 10.3654 2.26811C8.68248 3.34588 7.42604 5.09797 6.97073 7.06332C6.90157 7.30538 6.86699 7.55321 6.8324 7.80681C6.81511 7.9336 6.79782 8.05463 6.7863 8.18143L6.76901 8.55606L6.75748 8.93068C6.75172 9.05748 6.76324 9.14969 6.76324 9.26496L6.78053 9.91047C6.80935 10.775 6.84969 11.6337 6.91309 12.4925C6.94767 12.9536 7.0226 13.3801 7.1494 13.6913L6.53847 13.7028L6.03705 13.6682ZM8.65366 12.4464C8.70553 11.5473 8.7574 10.6367 8.79198 9.7318L8.81504 9.05172L8.86115 8.45231C8.87844 8.25636 8.92454 8.06616 8.95336 7.8702C8.98218 7.67425 9.05134 7.48981 9.09169 7.29962C9.2646 6.69446 9.51818 6.11811 9.85246 5.57634C10.1983 5.0461 10.619 4.56774 11.1032 4.147C11.5815 3.72627 12.1464 3.40351 12.74 3.14992C13.0339 3.01736 13.3452 2.93667 13.6564 2.84446C13.9618 2.79259 14.227 2.71766 14.6189 2.70037C15.7946 2.79259 16.8897 3.1845 17.8349 3.76661C18.3075 4.06631 18.734 4.42941 19.1259 4.82133C19.5005 5.23053 19.8291 5.68009 20.0999 6.15845C20.3478 6.64835 20.561 7.16706 20.6821 7.70883C20.7224 7.84715 20.7224 7.96242 20.7512 8.08345C20.7743 8.20449 20.8031 8.31975 20.8031 8.49842L20.8319 8.99408L20.8377 9.4321C20.8434 10.7577 20.8434 12.0775 20.8088 13.3974C20.8088 13.4262 20.8088 13.4608 20.8146 13.4896L19.9386 13.4953L15.4719 13.5472L8.37125 13.651C8.5211 13.3685 8.62484 12.9478 8.65366 12.4464Z" fill="#0099AE"/>
<path d="M15.9423 21.4202C15.9366 21.5009 15.9135 21.6334 15.8847 21.7372C15.8098 21.8236 15.7233 21.8985 15.6311 21.9619C15.3487 22.1637 15.0144 22.2098 14.7032 22.1464C14.3977 22.083 14.098 21.9043 13.8617 21.5931C13.7925 21.5066 13.6946 21.4259 13.5505 21.351C13.4064 21.2819 13.2047 21.2127 12.9453 21.2242C12.709 21.2357 12.5015 21.3164 12.3574 21.4893C12.2249 21.6565 12.1557 21.9101 12.2249 22.1867C12.3402 22.6766 12.5995 23.1435 12.9741 23.5181C13.3545 23.8869 13.8329 24.1521 14.3862 24.2443C15.2161 24.3884 16.1325 24.129 16.7607 23.5757C17.4005 23.0282 17.7636 22.2271 17.7751 21.4029C17.7348 21.4259 17.6887 21.449 17.6483 21.472C17.6887 21.4375 17.7348 21.4144 17.7751 21.4029C17.8789 21.0744 17.9077 20.6709 17.8385 20.2905C17.7693 19.9044 17.6137 19.5298 17.3774 19.2012C17.1411 18.8727 16.8357 18.5903 16.4783 18.3828C16.3861 18.331 16.2939 18.2848 16.2017 18.2387C16.1037 18.1984 16.0115 18.1638 15.9135 18.1235C15.8155 18.0947 15.7118 18.0658 15.6138 18.0428C15.5043 18.0197 15.3775 18.0024 15.2565 17.9851L15.2104 17.9794H15.1815H15.1297L15.0259 17.9736H15.0029H14.9914H14.9222H14.9107L14.8357 17.9794L14.6801 17.9851C14.4726 18.0024 14.2652 18.037 14.0692 18.0947C13.6658 18.2099 13.2911 18.4001 12.9626 18.6537C12.6341 18.9073 12.3574 19.2185 12.1442 19.5759C12.0347 19.7488 11.9425 19.939 11.8675 20.1349C11.8272 20.2329 11.7984 20.3309 11.7696 20.4289L11.7292 20.5787L11.6946 20.7574C11.6543 20.9764 11.8618 21.0917 11.9943 21.1551C12.271 21.2646 12.5131 21.1551 12.709 20.9764C13.3833 20.4 13.9021 20.2214 14.3343 20.06C14.4669 20.0139 14.6052 19.9966 14.7378 19.9966C14.7723 19.9966 14.8012 19.9966 14.8357 20.0024L14.8876 20.0081H14.9107H14.9222H14.928H14.9337C14.9164 20.0081 14.9798 20.0081 14.8876 20.0081C14.9914 20.0254 15.1354 20.0427 15.1412 20.0658C15.1643 20.0773 15.2449 20.1119 15.2911 20.1349C15.3429 20.1637 15.3948 20.1983 15.4409 20.2329C15.5331 20.3078 15.6196 20.3885 15.6887 20.4807C15.8213 20.6652 15.9077 20.8726 15.9308 21.0801C15.9366 21.1089 15.9423 21.132 15.9423 21.1608L15.9481 21.2012V21.2242L15.9423 21.3741C15.9423 21.4086 15.9366 21.4029 15.9423 21.4202Z" fill="#0099AE"/>
</svg>
