<svg width="134" height="51" viewBox="0 0 134 51" fill="none" xmlns="http://www.w3.org/2000/svg">
<path fill-rule="evenodd" clip-rule="evenodd" d="M63.5629 44.6475C56.1229 46.0475 46.2129 47.3475 42.7729 38.5975C40.4429 32.6475 43.7029 26.7475 48.9229 23.7475L44.2929 15.6475C61.0229 6.07746 122.853 -8.17251 131.733 5.92746C135.133 11.3275 131.463 20.4775 124.573 23.2875C130.003 45.3275 76.9529 49.5875 64.0029 50.5475L63.5629 44.6475Z" fill="#0099AE"/>
<path d="M62.9834 35.7075C62.7634 35.7075 62.5834 35.5975 62.4634 35.3775C62.3334 35.1575 62.2634 34.8475 62.2634 34.4375L62.2334 29.6175C62.1592 26.6581 62.1258 23.6978 62.1334 20.7375V19.0775C61.9334 20.1275 61.6034 21.5775 61.1334 23.4775C60.7274 25.0661 60.3871 26.6708 60.1134 28.2875V28.4875L60.0134 29.0975C59.9734 29.5775 59.8634 30.0675 59.6934 30.5675C59.4734 31.0875 59.1434 31.3475 58.6934 31.3475C57.9034 31.3475 57.5134 30.3275 57.5134 28.2875C57.5134 27.1575 57.3934 25.9575 57.1534 24.6775C56.9434 23.3775 56.5834 21.7775 56.0834 19.8975L55.1034 16.2475L55.0434 20.1475C55.0434 21.3275 55.0934 23.5575 55.2034 26.8475L55.2734 29.0675L55.3334 33.5275C55.3334 33.9775 55.1734 34.3875 54.8434 34.7575C54.3034 34.7575 53.9234 34.5975 53.7034 34.2775C53.4831 33.8095 53.3834 33.2939 53.4134 32.7775L53.4834 30.1075C53.5434 28.9375 53.5834 28.0575 53.5834 27.4775L53.5134 21.1975L53.4434 14.8875C53.4434 13.9575 53.4734 12.5575 53.5134 10.6875L54.3934 10.1675C54.5634 10.1875 54.7334 10.3175 54.9134 10.5675C55.0834 10.7675 55.2834 11.1375 55.4934 11.6275C56.0434 12.9775 56.7434 15.6675 57.6134 19.6975C57.7434 20.2675 57.8334 20.7275 57.8734 21.0975C58.1334 22.3575 58.3134 23.3075 58.4234 23.9575L58.9134 26.4575L59.1434 25.3875L59.7634 22.7275C60.1034 21.1675 60.3834 19.7975 60.6034 18.6275C60.8434 17.4575 61.0734 16.1875 61.2834 14.8275C61.5234 13.1975 61.6834 11.8375 61.7434 10.7575V10.5575C61.7834 10.2775 61.9134 10.0575 62.1334 9.90746C62.3534 9.73746 62.6134 9.64746 62.9134 9.64746C63.1134 9.64746 63.2834 9.73746 63.4334 9.90746C63.5834 10.0775 63.6634 10.2675 63.6634 10.4575C63.6634 13.0575 63.7634 16.9575 63.9634 22.1375C64.1321 26.0187 64.2254 29.9027 64.2434 33.7875C64.2434 34.2875 64.1134 34.7275 63.8534 35.1175C63.5934 35.5175 63.3034 35.7075 62.9834 35.7075ZM74.7934 35.1475C74.2934 35.1475 73.9234 35.0775 73.6934 34.9275C73.4434 34.7675 73.3234 34.4875 73.3234 34.0775C73.3234 33.4275 73.2234 32.3175 73.0034 30.7575L72.8734 30.0775L69.6534 29.5875C69.5234 30.0875 69.3334 31.0875 69.1034 32.6175C68.9734 33.6775 68.7634 34.3775 68.4834 34.7275C68.3334 34.9275 68.1134 35.0275 67.8334 35.0275C67.5734 35.0275 67.3334 34.9475 67.1134 34.7975C67.015 34.7267 66.9348 34.6336 66.8792 34.5258C66.8236 34.4181 66.7942 34.2988 66.7934 34.1775L66.8534 34.0175L66.8834 33.8875C68.3153 28.3179 69.4139 22.6679 70.1734 16.9675L70.2334 16.0575C70.3034 15.2575 70.3634 14.6175 70.4334 14.1375C70.5234 13.6575 70.6534 13.2975 70.8234 13.0675H71.9234C72.2234 13.0675 72.4934 13.1375 72.7134 13.2875C72.9234 13.4175 73.0334 13.6175 73.0334 13.8775C73.1071 16.3397 73.3376 18.7947 73.7234 21.2275C74.1534 24.5675 74.3734 26.9075 74.3734 28.2575C74.3734 28.3875 74.4234 28.7175 74.5334 29.2575C74.6334 29.7575 74.6934 30.0875 74.6934 30.2375C74.6934 30.3875 74.7934 31.0375 75.0234 32.1875C75.2234 33.2275 75.3134 33.9075 75.3134 34.2075V34.2375C75.3134 34.7175 75.1434 35.0175 74.7934 35.1475ZM72.6434 28.9075C72.5834 28.5775 72.5434 28.1775 72.5434 27.7075C72.5434 25.7475 72.3734 23.2575 72.0234 20.2175L71.7034 16.8375C70.7734 21.9375 70.1334 25.7875 69.7834 28.3875C70.1034 28.5975 71.0634 28.7775 72.6434 28.9075ZM79.4334 34.9275C79.2949 34.8958 79.1547 34.8725 79.0134 34.8575C78.8134 34.8375 78.6534 34.7875 78.5234 34.6975C78.2034 34.4775 78.0734 34.1075 78.1334 33.5975L78.1734 32.8775C78.2534 31.7075 78.3034 30.8275 78.3034 30.2375C78.3034 26.8375 78.2634 23.4075 78.2034 19.9575C78.2034 18.1775 78.1434 16.2975 78.0434 14.2975C78.0087 13.9873 78.0868 13.6749 78.2634 13.4175C78.3483 13.3076 78.4574 13.2188 78.5824 13.1581C78.7073 13.0973 78.8445 13.0664 78.9834 13.0675C79.2434 13.0675 79.5034 13.1875 79.7634 13.4175C80.0434 13.6575 80.1734 13.9375 80.1534 14.2675C80.0034 14.9175 79.9234 16.2175 79.9234 18.1675V20.7675C79.9234 21.2475 79.9434 22.0075 79.9934 23.0475C80.0534 22.9675 80.2634 22.5575 80.6134 21.8475L80.8334 21.4475C80.9434 21.2575 81.0234 21.0675 81.0634 20.8675C81.7834 18.6975 82.3634 17.0275 82.8234 15.8675C83.0234 15.2275 83.2734 14.6975 83.6034 14.2675C83.9234 13.8075 84.3734 13.4975 84.9334 13.3275C85.1334 13.2575 85.3934 13.2775 85.7134 13.3875C86.0634 13.4975 86.2934 13.6275 86.4034 13.7875C86.5334 13.9275 86.6034 14.1175 86.6034 14.3275C86.6034 14.5475 86.5234 14.7475 86.3634 14.9175C86.2388 15.0901 86.0526 15.2083 85.8434 15.2475C85.3034 15.3275 84.8834 15.5275 84.5734 15.8275C84.2734 16.1275 84.0434 16.4575 83.8934 16.8075C83.7634 17.1275 83.5934 17.6275 83.4034 18.3075L82.1034 21.4875L81.8034 22.2675C81.7034 22.6375 81.6034 22.9175 81.4834 23.1175C81.4287 23.1951 81.361 23.2628 81.2834 23.3175L81.0634 23.5075C81.2134 23.3975 81.4134 23.4275 81.6534 23.6075C81.9134 23.7775 82.1734 24.0075 82.4334 24.3175C82.6034 24.6675 82.7234 25.0475 82.7934 25.4575C82.8734 25.8675 82.9334 26.1075 82.9534 26.1775C82.9934 26.5175 83.0334 26.7775 83.0834 26.9575C83.5718 28.2117 83.8358 29.5419 83.8634 30.8875C83.9234 31.6675 84.1434 32.3575 84.5134 32.9375C84.795 32.9919 85.0785 33.0352 85.3634 33.0675C85.7034 33.0875 85.9334 33.3075 86.0434 33.7175C86.0634 33.7675 86.0734 33.8375 86.0734 33.9475C86.0734 34.1875 85.9734 34.4175 85.7534 34.6275C85.4234 34.9575 85.0134 35.1275 84.5134 35.1275C84.1434 35.1275 83.7834 35.0275 83.4434 34.8275C83.1134 34.6275 82.8734 34.3675 82.7234 34.0475C82.5696 33.7725 82.4583 33.4758 82.3934 33.1675C82.2407 32.2275 82.1106 31.2839 82.0034 30.3375C81.9503 29.3338 81.8536 28.3328 81.7134 27.3375C81.6334 26.6475 81.4134 25.9875 81.0934 25.3575C81.0285 25.2349 80.9402 25.1261 80.8334 25.0375C80.7867 24.9936 80.7317 24.9594 80.6716 24.9371C80.6115 24.9148 80.5475 24.9047 80.4834 24.9075C80.3534 24.9075 80.1834 24.9375 79.9834 25.0075C79.8811 27.9472 79.9044 30.8899 80.0534 33.8275C80.0813 34.0302 80.0351 34.2361 79.9234 34.4075C79.8434 34.5375 79.6734 34.7075 79.4334 34.9275ZM93.7434 35.3175C86.4434 35.3175 88.1934 22.0975 89.2834 17.7175C89.5534 16.5975 90.0234 15.2375 90.8834 14.4275C91.8638 13.6093 93.1067 13.1725 94.3834 13.1975C95.0434 13.1975 95.4034 13.5275 95.4034 13.9975C95.4034 14.3975 95.0934 14.8375 94.6834 14.8875C93.6434 14.8875 92.6334 14.6675 92.0134 15.6975C91.6513 16.3533 91.4203 17.0734 91.3334 17.8175C90.7834 20.9275 88.5234 31.6375 92.7634 33.3975C93.3434 33.6275 94.0334 33.7075 94.5634 33.3275C94.9834 33.3275 95.5334 33.5375 95.5334 34.0475C95.5334 34.8875 94.9334 35.3175 93.7334 35.3175H93.7434ZM106.704 35.0875C105.504 35.0875 104.544 34.2175 104.034 33.1975C102.864 30.8675 103.134 27.8575 102.954 25.3275H100.154L100.484 33.8175C100.624 34.9875 98.8034 35.3575 98.5934 34.2175C98.2334 31.2875 98.4334 28.1575 98.4334 25.2275C98.4334 23.8875 98.4834 22.5375 98.5034 21.1975C98.5034 18.7175 98.4334 16.2575 98.5034 13.7775C98.5034 12.5175 100.674 13.0575 100.514 14.1775C100.184 16.2975 100.544 18.5575 100.354 20.7075C100.263 21.8452 100.219 22.9862 100.224 24.1275C101.154 24.2375 102.034 24.1075 102.954 23.9275C103.104 21.0875 103.394 18.2275 103.934 15.4375C104.134 14.3675 104.784 13.0375 106.014 13.0375C108.264 13.0375 110.344 14.9375 110.764 17.4175C111.504 21.8275 112.114 28.8875 109.624 33.3575C109.331 33.8785 108.906 34.3129 108.391 34.6168C107.877 34.9206 107.291 35.083 106.694 35.0875H106.704ZM106.704 33.7875C108.144 33.7875 108.664 31.0875 108.904 30.0475C109.974 25.9975 110.014 20.3675 108.784 16.4475C108.504 15.5175 107.454 14.0675 106.404 14.0675C105.274 14.0675 105.304 16.5075 105.134 18.1675C104.714 22.3375 104.634 25.0675 104.714 28.5475C104.774 29.7475 104.834 33.7875 106.694 33.7875H106.704ZM115.344 34.6975C115.024 34.4775 114.894 34.1075 114.954 33.5975C115.254 27.1675 115.204 20.7175 114.854 14.2975C114.824 13.7175 115.144 13.0675 115.804 13.0675C116.404 13.0675 117.004 13.6675 116.974 14.2675C116.334 17.0075 116.694 20.2675 116.814 23.0475C118.314 21.0375 118.764 18.1175 119.644 15.8575C119.844 15.2275 120.094 14.6975 120.424 14.2675C120.964 13.5075 122.494 12.7675 123.224 13.7775C123.654 14.2875 123.294 15.1175 122.664 15.2475C121.764 15.3875 121.084 15.9675 120.714 16.8075C119.844 18.9775 119.584 21.8075 117.884 23.5075C118.034 23.3975 118.234 23.4275 118.474 23.6075C119.784 24.4875 120.174 27.4075 120.454 28.8775C120.554 29.4375 120.634 30.1075 120.684 30.8875C120.744 31.6675 120.964 32.3575 121.334 32.9375C121.564 32.9875 121.854 33.0375 122.174 33.0675C123.024 33.1175 123.024 34.1675 122.574 34.6275C121.314 35.8875 119.554 34.5975 119.214 33.1675C118.814 30.6475 119.104 27.6475 117.914 25.3675C117.664 24.9075 117.304 24.8375 116.814 24.9975C116.724 27.9475 116.744 30.8775 116.874 33.8175C116.954 34.6975 116.054 35.1675 115.344 34.6975Z" fill="white"/>
<path d="M1.14305 34.8575C0.613042 34.8975 0.203042 34.6575 0.203042 34.0775C0.333042 26.3075 -0.0369579 18.5575 0.00304211 10.7775C0.253042 10.2975 1.02305 10.0775 1.47305 10.3275C1.83305 10.5075 1.99305 11.0475 1.86305 11.4375C1.47305 15.3275 1.57305 18.7875 1.46305 22.4375C2.56305 22.4375 3.60305 22.1075 4.69305 22.1075C4.79305 19.1875 4.94305 16.4375 5.44305 13.5475C5.69305 12.1975 6.63305 10.1675 8.24305 10.1675C15.783 9.62753 13.473 35.4475 8.10305 35.4475C5.33305 35.4475 4.77305 26.3875 4.62305 23.4075C3.62305 23.1175 2.47305 23.4075 1.47305 23.5375C1.47305 25.3275 1.57305 26.9975 1.63305 28.7075C1.72305 31.0775 1.81305 32.8375 1.93305 34.0075C1.99305 34.5775 1.73305 34.8575 1.14305 34.8575ZM9.44305 32.7475C11.293 28.8275 13.123 11.1475 8.53305 11.1475C7.71305 11.1475 7.20305 12.3775 7.03305 13.0275C5.45305 18.7275 5.75305 27.2775 7.49305 33.1275C7.99305 34.8075 8.87305 33.9075 9.44305 32.7475ZM16.153 35.5775C15.9493 35.5678 15.7565 35.4825 15.6123 35.3383C15.4681 35.194 15.3828 35.0012 15.373 34.7975C15.373 34.5075 15.523 34.2875 15.823 34.1075C16.3961 33.8791 16.8777 33.4678 17.193 32.9375C17.513 32.3975 17.743 31.7675 17.873 31.0575C18.883 25.5375 18.443 19.8175 18.033 14.2675V14.1375C18.033 13.9375 18.083 13.7875 18.163 13.6775C18.263 13.5775 18.403 13.4975 18.623 13.4575C20.023 13.1875 21.483 12.9575 22.923 13.0975C23.423 13.1175 23.793 13.2675 24.053 13.5475C24.313 13.8375 24.453 14.2275 24.453 14.7275C24.563 21.0875 24.523 27.4675 25.003 33.8175C25.023 34.2175 24.953 34.4875 24.803 34.6675C24.673 34.8375 24.443 34.9475 24.123 34.9875C23.403 35.0275 23.023 34.6875 22.983 33.9875C23.223 31.6175 23.033 29.1875 23.013 26.8275C23.013 22.9675 22.913 14.7275 22.913 14.7275C21.913 14.6275 20.953 14.6275 19.953 14.7275C19.593 20.2775 20.663 25.9675 19.663 31.4775C19.3455 32.8101 18.6593 34.0265 17.683 34.9875C17.313 35.4075 16.683 35.5775 16.153 35.5775ZM29.703 34.2375C29.703 32.7075 29.603 31.1775 29.573 29.6575C29.483 28.0675 29.433 26.8575 29.413 26.0075C29.253 22.8075 29.083 19.5675 29.083 16.3475C29.023 15.6675 28.993 14.9175 29.113 14.2375C29.213 13.5575 29.573 13.2475 30.223 13.2875C31.073 13.2875 31.203 14.0375 31.203 14.7275L31.163 22.9275C31.163 25.5075 31.003 28.0875 31.333 30.6575C31.4486 30.0065 31.6227 29.3672 31.853 28.7475C33.723 23.9075 34.933 18.8475 36.853 14.0475C37.103 13.3775 37.613 12.9675 38.323 12.9675C38.623 12.9675 38.943 13.0675 39.263 13.2675C39.263 19.8975 39.423 26.5275 39.493 33.1675C39.493 33.6675 39.373 34.3575 38.943 34.6675C38.343 35.0075 37.543 34.6875 37.543 33.9475C37.543 33.2975 37.573 32.6675 37.643 32.0575C37.893 27.3075 37.713 22.5175 37.313 17.7775C37.113 17.9975 36.993 18.2675 36.973 18.3275C35.223 23.6975 33.283 28.8575 31.363 34.1775C31.183 34.6275 30.923 34.8575 30.583 34.8575C30.183 34.8575 29.733 34.6975 29.703 34.2375ZM42.043 34.5675C42.143 33.9875 42.593 34.0575 42.893 33.6875C43.193 33.3075 43.223 32.7175 43.313 32.2575C43.913 29.4175 42.843 26.9175 44.813 24.3575C43.553 23.1975 42.923 20.9475 42.923 19.5775C42.923 16.1775 43.913 12.7375 48.263 12.7375C48.803 12.7375 49.823 13.0175 49.823 13.7175C49.823 16.7175 49.723 19.7175 49.663 22.7175L49.623 24.5475C49.673 27.4275 49.623 30.5175 50.143 33.3575C50.273 34.0575 50.203 34.8275 49.303 34.8275C48.833 34.8275 48.303 34.5975 48.263 34.0775C48.193 33.5775 48.163 33.0775 48.163 32.5475L48.063 24.4475C47.303 24.5775 46.743 24.7175 46.373 24.8675C43.793 25.9375 45.373 30.5675 45.043 32.6175C44.893 33.4675 44.483 34.6475 43.603 35.0175C43.123 35.2275 42.123 35.2775 42.043 34.5675ZM48.133 23.2175C48.133 20.3175 47.863 17.4475 48.063 14.5575C45.793 14.8975 44.783 15.9875 44.713 18.8575C44.713 22.0175 44.653 23.9975 48.133 23.2175Z" fill="black"/>
</svg>
