<svg width="30" height="30" viewBox="0 0 30 30" fill="none" xmlns="http://www.w3.org/2000/svg">
<path fill-rule="evenodd" clip-rule="evenodd" d="M19.2123 2.97787C21.0103 2.68916 23.2462 3.43415 24.8151 4.97297C26.3407 6.4693 27.1784 8.65665 26.3376 11.2874C25.9663 12.4493 25.506 12.973 25.0704 13.2617C24.307 13.7678 23.1323 14.0796 22.0135 14.3767C21.2723 14.5735 20.5557 14.7638 19.9993 14.9997C19.2217 15.3294 18.4769 15.8379 17.8635 16.4165C17.7571 16.4009 17.6345 16.388 17.4919 16.3771C17.1248 16.3489 16.7422 16.3181 16.3771 16.2688C15.1272 16.1002 14.2909 15.2064 13.4674 14.3262C13.2845 14.1307 13.1021 13.9358 12.916 13.7497C12.4993 13.333 11.9213 13.5883 12.0091 14.1745C12.0969 14.7608 12.4466 15.6904 12.9286 16.2688C13.963 17.708 14.7796 18.1091 16.2399 18.3334C16.7777 18.416 17.4919 18.3334 17.4919 18.3334C17.4919 18.3334 19.3496 20.3236 19.9989 20.833C20.152 20.9531 20.094 21.3299 20.0083 21.4894C19.8547 21.7754 19.5293 22.0575 18.9923 22.0826C18.306 22.1147 17.2291 21.832 15.9156 21.2107C14.6356 20.6053 13.2498 19.7354 11.9857 18.7398C9.43784 16.7333 7.53171 14.5357 6.78887 12.409C6.4476 11.432 6.49772 10.4446 6.72876 9.74727C6.73844 9.71805 6.74781 9.6886 6.7572 9.65906C6.82776 9.43714 6.8999 9.21028 7.11975 9.03859C7.46564 8.76848 8.07685 9.11853 8.74894 9.58301C9.63141 10.1929 10.9442 11.1267 12.0091 11.9998C12.0557 12.0403 12.1096 12.0888 12.1689 12.1421C12.5113 12.4499 13.0302 12.9163 13.3144 12.9163C13.336 12.9163 13.3567 12.9154 13.3765 12.9135L13.3805 12.9183L13.3877 12.9123C13.6615 12.8807 13.7607 12.6706 13.8559 12.4688L13.8587 12.4628C13.8634 12.4306 13.868 12.3952 13.8722 12.3574C14.2305 11.7961 14.3608 11.1236 14.4852 10.4817C14.5168 10.3182 14.5481 10.1568 14.5827 9.99967C14.6978 9.47639 14.8539 8.9539 15.0108 8.42866C15.1637 7.91693 15.3174 7.40258 15.4347 6.88235C15.6645 5.86316 15.9837 5.00319 16.5289 4.3476C17.0496 3.7214 17.8474 3.19703 19.2123 2.97787ZM21.1175 16.4706C20.5511 16.7108 19.9664 17.0843 19.3817 17.7372C19.9343 18.3678 20.3532 18.6971 20.8413 19.0809V19.081C21.0489 19.2442 21.2691 19.4173 21.5174 19.6277C22.4518 20.4192 22.2576 21.7045 21.8437 22.4751C21.3704 23.3563 20.4132 24.1018 19.0895 24.1637C17.9698 24.216 16.635 23.8214 15.3254 23.2327C14.9177 26.0034 13.254 27.7796 11.1297 28.4691C8.7683 29.2355 5.97423 28.6083 4.07689 26.7943C2.28852 25.0844 1.30362 22.4407 1.78966 20.1177C2.03838 18.9289 2.6759 17.8291 3.77343 17.0388C4.48098 16.5293 5.34577 16.1724 6.36157 15.9852C5.69729 15.054 5.1683 14.0873 4.82206 13.096C4.32406 11.6703 4.38054 10.2107 4.75114 9.09207C4.93557 8.5354 5.21596 8.00883 5.60032 7.61188C5.98356 7.21609 6.56036 6.8686 7.26956 6.9439C7.70335 6.98995 8.16549 7.20438 8.55013 7.41203C8.97189 7.63972 9.4503 7.94441 9.95515 8.29331C10.7686 8.85547 11.6931 9.562 12.6285 10.3165C12.6973 10.1085 12.7618 9.86827 12.8226 9.59147C12.9176 9.15986 12.994 8.6933 13.0784 8.17784V8.17782V8.1778V8.17779L13.0899 8.10759C13.1771 7.57553 13.2729 6.99861 13.4024 6.42417C13.6598 5.28224 14.0714 4.04452 14.927 3.01558C15.8071 1.95724 17.08 1.21023 18.882 0.920885C21.4178 0.513705 24.2978 1.54737 26.2739 3.48563C28.2934 5.46637 29.4302 8.45453 28.3221 11.9216C27.8471 13.4078 27.1507 14.3822 26.2215 14.9982C25.3317 15.588 24.3375 15.7674 23.5057 15.9036C23.429 15.9161 23.3532 15.9284 23.2784 15.9405C22.4921 16.0677 21.8061 16.1786 21.1175 16.4706ZM10.6967 20.3766C11.6046 21.0916 12.5765 21.7524 13.5467 22.3146C13.5381 25.0217 12.0075 25.9938 10.4866 26.4875C8.86945 27.0124 6.87178 26.5841 5.5166 25.2884C4.16235 23.9936 3.51304 22.0536 3.82884 20.5443C4.16523 18.9365 6.1622 17.8593 7.78741 17.7227C8.65737 18.6601 9.64618 19.5492 10.6967 20.3766ZM20.8425 10.4789C20.4842 10.5644 20.1769 10.6376 19.5515 10.8441C18.4606 11.2043 19.0946 12.3272 19.5515 12.3461C20.0084 12.3649 21.0839 12.2869 22.3839 11.9123C23.4968 11.5916 24.3551 11.0963 24.9099 10.3282C25.4626 9.563 25.6297 8.55637 25.6295 7.70802C25.6293 6.85967 24.3796 6.87467 24.0504 7.83279C23.6899 8.88208 22.9338 9.90422 21.8796 10.208C21.4042 10.345 21.1092 10.4153 20.8425 10.4789Z" fill="#0099AE"/>
</svg>
